<svg width="1280" height="720" xmlns="http://www.w3.org/2000/svg" xmlns:xlink="http://www.w3.org/1999/xlink" overflow="hidden"><defs><clipPath id="clip0"><rect x="0" y="0" width="1280" height="720"/></clipPath></defs><g clip-path="url(#clip0)"><rect x="0" y="0" width="1280" height="720" fill="#FFFFFF"/><path d="M382.328 151.739C381.796 151.739 381.336 151.784 380.945 151.873 380.554 151.963 380.23 152.096 379.972 152.272 379.714 152.448 379.525 152.659 379.404 152.905 379.283 153.151 379.222 153.434 379.222 153.754 379.222 154.301 379.396 154.737 379.744 155.061 380.091 155.385 380.578 155.547 381.203 155.547 381.711 155.547 382.181 155.418 382.615 155.161 383.048 154.903 383.504 154.508 383.98 153.977L383.98 151.739ZM523.026 147.133C522.775 147.133 522.527 147.168 522.284 147.239 522.04 147.309 521.792 147.426 521.541 147.59 521.289 147.754 521.028 147.965 520.757 148.223 520.486 148.481 520.197 148.805 519.89 149.196L519.89 153.403C520.425 154.051 520.936 154.545 521.423 154.885 521.91 155.225 522.417 155.395 522.944 155.395 523.431 155.395 523.848 155.278 524.194 155.043 524.54 154.809 524.821 154.498 525.037 154.112 525.253 153.725 525.41 153.291 525.508 152.811 525.607 152.33 525.656 151.844 525.656 151.352 525.656 150.813 525.615 150.289 525.532 149.782 525.45 149.274 525.306 148.825 525.102 148.434 524.897 148.043 524.626 147.729 524.288 147.491 523.95 147.252 523.53 147.133 523.026 147.133ZM435 147.133C434.507 147.133 434.089 147.25 433.746 147.485 433.402 147.719 433.123 148.028 432.908 148.411 432.693 148.793 432.537 149.227 432.439 149.711 432.341 150.196 432.293 150.688 432.293 151.188 432.293 151.719 432.334 152.239 432.416 152.746 432.498 153.254 432.64 153.705 432.843 154.1 433.046 154.495 433.316 154.811 433.652 155.049 433.988 155.287 434.41 155.407 434.918 155.407 435.175 155.407 435.423 155.371 435.662 155.301 435.9 155.231 436.144 155.114 436.394 154.95 436.644 154.786 436.906 154.573 437.179 154.311 437.453 154.049 437.742 153.727 438.046 153.344L438.046 149.125C437.523 148.477 437.017 147.983 436.529 147.643 436.041 147.303 435.531 147.133 435 147.133ZM358.038 147.133C357.787 147.133 357.539 147.17 357.296 147.245 357.052 147.319 356.804 147.436 356.553 147.596 356.301 147.756 356.038 147.967 355.763 148.229 355.488 148.491 355.197 148.813 354.89 149.196L354.89 153.391C355.425 154.039 355.932 154.536 356.411 154.879 356.891 155.223 357.394 155.395 357.92 155.395 358.408 155.395 358.826 155.278 359.176 155.043 359.526 154.809 359.809 154.496 360.025 154.106 360.241 153.715 360.4 153.278 360.503 152.793 360.605 152.309 360.656 151.821 360.656 151.329 360.656 150.789 360.615 150.268 360.532 149.764 360.45 149.26 360.308 148.813 360.108 148.422 359.907 148.032 359.638 147.719 359.3 147.485 358.962 147.25 358.541 147.133 358.038 147.133ZM335.521 147.086C334.946 147.086 334.451 147.188 334.037 147.391 333.623 147.594 333.282 147.881 333.014 148.252 332.746 148.623 332.547 149.063 332.417 149.571 332.287 150.079 332.222 150.633 332.222 151.235 332.222 151.813 332.275 152.356 332.382 152.864 332.488 153.371 332.666 153.815 332.914 154.194 333.162 154.573 333.495 154.873 333.913 155.096 334.331 155.319 334.851 155.43 335.474 155.43 336.042 155.43 336.534 155.329 336.952 155.125 337.37 154.922 337.713 154.637 337.981 154.27 338.249 153.903 338.446 153.465 338.572 152.957 338.698 152.45 338.761 151.891 338.761 151.282 338.761 150.711 338.708 150.172 338.602 149.664 338.495 149.157 338.32 148.711 338.075 148.329 337.831 147.946 337.5 147.643 337.082 147.42 336.664 147.198 336.144 147.086 335.521 147.086ZM453.217 146.981C452.737 146.981 452.317 147.071 451.955 147.25 451.594 147.43 451.291 147.668 451.047 147.965 450.804 148.262 450.615 148.608 450.481 149.002 450.348 149.397 450.273 149.809 450.257 150.239L456.011 150.239C456.035 149.223 455.809 148.426 455.333 147.848 454.858 147.27 454.152 146.981 453.217 146.981ZM544.918 145.633C545.113 145.633 545.273 145.641 545.398 145.657 545.523 145.672 545.621 145.696 545.691 145.727 545.761 145.758 545.812 145.797 545.843 145.844 545.875 145.891 545.89 145.942 545.89 145.996L545.89 156.543C545.89 156.606 545.875 156.659 545.843 156.702 545.812 156.745 545.761 156.782 545.691 156.813 545.621 156.844 545.523 156.868 545.398 156.883 545.273 156.899 545.113 156.907 544.918 156.907 544.73 156.907 544.574 156.899 544.449 156.883 544.324 156.868 544.224 156.844 544.15 156.813 544.076 156.782 544.025 156.745 543.998 156.702 543.97 156.659 543.957 156.606 543.957 156.543L543.957 145.996C543.957 145.942 543.97 145.891 543.998 145.844 544.025 145.797 544.076 145.758 544.15 145.727 544.224 145.696 544.324 145.672 544.449 145.657 544.574 145.641 544.73 145.633 544.918 145.633ZM531.871 145.633C532.058 145.633 532.214 145.639 532.339 145.651 532.464 145.662 532.564 145.686 532.638 145.721 532.713 145.756 532.765 145.795 532.797 145.838 532.828 145.881 532.843 145.934 532.843 145.996L532.843 152.137C532.843 152.754 532.888 153.248 532.978 153.62 533.068 153.991 533.205 154.307 533.388 154.569 533.572 154.83 533.804 155.034 534.086 155.178 534.367 155.323 534.695 155.395 535.07 155.395 535.554 155.395 536.037 155.223 536.517 154.879 536.998 154.536 537.507 154.032 538.047 153.368L538.047 145.996C538.047 145.934 538.06 145.881 538.088 145.838 538.115 145.795 538.168 145.756 538.246 145.721 538.324 145.686 538.423 145.662 538.545 145.651 538.666 145.639 538.824 145.633 539.019 145.633 539.207 145.633 539.363 145.639 539.488 145.651 539.613 145.662 539.711 145.686 539.781 145.721 539.851 145.756 539.904 145.795 539.939 145.838 539.974 145.881 539.992 145.934 539.992 145.996L539.992 156.543C539.992 156.606 539.978 156.659 539.951 156.702 539.923 156.745 539.875 156.782 539.804 156.813 539.734 156.844 539.642 156.868 539.529 156.883 539.416 156.899 539.277 156.907 539.113 156.907 538.933 156.907 538.787 156.899 538.673 156.883 538.56 156.868 538.47 156.844 538.404 156.813 538.338 156.782 538.293 156.745 538.269 156.702 538.246 156.659 538.234 156.606 538.234 156.543L538.234 155.149C537.632 155.813 537.039 156.297 536.453 156.602 535.867 156.907 535.273 157.059 534.672 157.059 533.968 157.059 533.377 156.942 532.896 156.707 532.416 156.473 532.027 156.155 531.73 155.752 531.433 155.35 531.22 154.881 531.091 154.346 530.963 153.811 530.898 153.161 530.898 152.395L530.898 145.996C530.898 145.934 530.912 145.881 530.939 145.838 530.966 145.795 531.019 145.756 531.097 145.721 531.175 145.686 531.277 145.662 531.402 145.651 531.527 145.639 531.683 145.633 531.871 145.633ZM472.918 145.633C473.113 145.633 473.273 145.641 473.398 145.657 473.523 145.672 473.621 145.696 473.691 145.727 473.761 145.758 473.812 145.797 473.843 145.844 473.875 145.891 473.89 145.942 473.89 145.996L473.89 156.543C473.89 156.606 473.875 156.659 473.843 156.702 473.812 156.745 473.761 156.782 473.691 156.813 473.621 156.844 473.523 156.868 473.398 156.883 473.273 156.899 473.113 156.907 472.918 156.907 472.73 156.907 472.574 156.899 472.449 156.883 472.324 156.868 472.224 156.844 472.15 156.813 472.076 156.782 472.025 156.745 471.998 156.702 471.97 156.659 471.957 156.606 471.957 156.543L471.957 145.996C471.957 145.942 471.97 145.891 471.998 145.844 472.025 145.797 472.076 145.758 472.15 145.727 472.224 145.696 472.324 145.672 472.449 145.657 472.574 145.641 472.73 145.633 472.918 145.633ZM444.918 145.633C445.113 145.633 445.273 145.641 445.398 145.657 445.523 145.672 445.621 145.696 445.691 145.727 445.761 145.758 445.812 145.797 445.843 145.844 445.875 145.891 445.89 145.942 445.89 145.996L445.89 156.543C445.89 156.606 445.875 156.659 445.843 156.702 445.812 156.745 445.761 156.782 445.691 156.813 445.621 156.844 445.523 156.868 445.398 156.883 445.273 156.899 445.113 156.907 444.918 156.907 444.73 156.907 444.574 156.899 444.449 156.883 444.324 156.868 444.224 156.844 444.15 156.813 444.076 156.782 444.025 156.745 443.998 156.702 443.97 156.659 443.957 156.606 443.957 156.543L443.957 145.996C443.957 145.942 443.97 145.891 443.998 145.844 444.025 145.797 444.076 145.758 444.15 145.727 444.224 145.696 444.324 145.672 444.449 145.657 444.574 145.641 444.73 145.633 444.918 145.633ZM504.125 145.469C504.562 145.469 504.955 145.52 505.302 145.621 505.65 145.723 505.957 145.866 506.222 146.049 506.488 146.233 506.714 146.452 506.902 146.705 507.089 146.959 507.246 147.243 507.371 147.555 507.722 147.172 508.056 146.848 508.373 146.582 508.689 146.317 508.994 146.102 509.287 145.938 509.58 145.774 509.865 145.655 510.142 145.58 510.42 145.506 510.699 145.469 510.98 145.469 511.66 145.469 512.23 145.588 512.691 145.827 513.152 146.065 513.525 146.383 513.81 146.782 514.095 147.18 514.298 147.647 514.42 148.182 514.541 148.717 514.601 149.282 514.601 149.875L514.601 156.543C514.601 156.606 514.586 156.659 514.554 156.702 514.523 156.745 514.472 156.782 514.402 156.813 514.332 156.844 514.234 156.868 514.109 156.883 513.984 156.899 513.828 156.907 513.64 156.907 513.445 156.907 513.285 156.899 513.16 156.883 513.035 156.868 512.935 156.844 512.861 156.813 512.787 156.782 512.734 156.745 512.703 156.702 512.672 156.659 512.656 156.606 512.656 156.543L512.656 150.133C512.656 149.688 512.617 149.282 512.539 148.914 512.461 148.547 512.336 148.231 512.164 147.965 511.992 147.7 511.773 147.496 511.507 147.356 511.242 147.215 510.929 147.145 510.57 147.145 510.125 147.145 509.677 147.317 509.228 147.661 508.779 148.004 508.285 148.508 507.746 149.172L507.746 156.543C507.746 156.606 507.73 156.659 507.699 156.702 507.668 156.745 507.615 156.782 507.541 156.813 507.466 156.844 507.367 156.868 507.242 156.883 507.117 156.899 506.961 156.907 506.773 156.907 506.593 156.907 506.439 156.899 506.31 156.883 506.181 156.868 506.08 156.844 506.005 156.813 505.931 156.782 505.88 156.745 505.853 156.702 505.826 156.659 505.812 156.606 505.812 156.543L505.812 150.133C505.812 149.688 505.769 149.282 505.683 148.914 505.597 148.547 505.468 148.231 505.296 147.965 505.125 147.7 504.908 147.496 504.646 147.356 504.384 147.215 504.074 147.145 503.714 147.145 503.269 147.145 502.82 147.317 502.367 147.661 501.914 148.004 501.421 148.508 500.89 149.172L500.89 156.543C500.89 156.606 500.875 156.659 500.843 156.702 500.812 156.745 500.761 156.782 500.691 156.813 500.621 156.844 500.523 156.868 500.398 156.883 500.273 156.899 500.113 156.907 499.918 156.907 499.73 156.907 499.574 156.899 499.449 156.883 499.324 156.868 499.224 156.844 499.15 156.813 499.076 156.782 499.025 156.745 498.998 156.702 498.97 156.659 498.957 156.606 498.957 156.543L498.957 145.996C498.957 145.934 498.968 145.881 498.992 145.838 499.015 145.795 499.062 145.756 499.132 145.721 499.203 145.686 499.293 145.662 499.402 145.651 499.511 145.639 499.656 145.633 499.836 145.633 500.007 145.633 500.15 145.639 500.263 145.651 500.377 145.662 500.464 145.686 500.527 145.721 500.589 145.756 500.634 145.795 500.662 145.838 500.689 145.881 500.703 145.934 500.703 145.996L500.703 147.391C501.296 146.727 501.873 146.241 502.431 145.932 502.99 145.623 503.554 145.469 504.125 145.469ZM453.316 145.469C454.144 145.469 454.849 145.602 455.431 145.868 456.013 146.133 456.492 146.491 456.867 146.94 457.242 147.389 457.517 147.916 457.693 148.522 457.869 149.127 457.957 149.774 457.957 150.461L457.957 150.813C457.957 151.118 457.88 151.334 457.727 151.463 457.574 151.592 457.399 151.657 457.203 151.657L450.257 151.657C450.257 152.243 450.316 152.77 450.434 153.239 450.552 153.707 450.748 154.11 451.023 154.446 451.298 154.782 451.655 155.039 452.094 155.219 452.534 155.399 453.072 155.489 453.708 155.489 454.21 155.489 454.658 155.448 455.05 155.366 455.443 155.284 455.782 155.192 456.069 155.09 456.355 154.989 456.591 154.897 456.775 154.815 456.96 154.733 457.099 154.692 457.193 154.692 457.248 154.692 457.297 154.705 457.341 154.733 457.384 154.76 457.417 154.801 457.441 154.856 457.464 154.911 457.482 154.987 457.494 155.084 457.505 155.182 457.511 155.301 457.511 155.442 457.511 155.543 457.507 155.631 457.5 155.705 457.492 155.78 457.482 155.846 457.47 155.905 457.459 155.963 457.439 156.016 457.412 156.063 457.384 156.11 457.349 156.155 457.306 156.198 457.263 156.241 457.136 156.311 456.925 156.409 456.714 156.506 456.441 156.602 456.105 156.696 455.769 156.789 455.38 156.873 454.939 156.948 454.498 157.022 454.027 157.059 453.527 157.059 452.66 157.059 451.9 156.938 451.248 156.696 450.595 156.454 450.046 156.094 449.601 155.618 449.156 155.141 448.82 154.543 448.593 153.825 448.367 153.106 448.254 152.27 448.254 151.317 448.254 150.411 448.371 149.596 448.605 148.873 448.839 148.151 449.177 147.537 449.619 147.034 450.06 146.53 450.593 146.143 451.218 145.873 451.843 145.604 452.543 145.469 453.316 145.469ZM424.265 145.469C424.968 145.469 425.56 145.588 426.041 145.827 426.521 146.065 426.91 146.383 427.207 146.782 427.504 147.18 427.716 147.647 427.845 148.182 427.974 148.717 428.039 149.36 428.039 150.11L428.039 156.543C428.039 156.606 428.023 156.659 427.992 156.702 427.961 156.745 427.91 156.782 427.839 156.813 427.769 156.844 427.671 156.868 427.546 156.883 427.421 156.899 427.265 156.907 427.078 156.907 426.882 156.907 426.722 156.899 426.597 156.883 426.472 156.868 426.375 156.844 426.304 156.813 426.234 156.782 426.183 156.745 426.152 156.702 426.121 156.659 426.105 156.606 426.105 156.543L426.105 150.368C426.105 149.766 426.058 149.282 425.964 148.914 425.871 148.547 425.734 148.231 425.554 147.965 425.375 147.7 425.142 147.496 424.857 147.356 424.572 147.215 424.242 147.145 423.867 147.145 423.382 147.145 422.898 147.317 422.414 147.661 421.929 148.004 421.421 148.508 420.89 149.172L420.89 156.543C420.89 156.606 420.875 156.659 420.843 156.702 420.812 156.745 420.761 156.782 420.691 156.813 420.621 156.844 420.523 156.868 420.398 156.883 420.273 156.899 420.113 156.907 419.918 156.907 419.73 156.907 419.574 156.899 419.449 156.883 419.324 156.868 419.224 156.844 419.15 156.813 419.076 156.782 419.025 156.745 418.998 156.702 418.97 156.659 418.957 156.606 418.957 156.543L418.957 145.996C418.957 145.934 418.968 145.881 418.992 145.838 419.015 145.795 419.062 145.756 419.132 145.721 419.203 145.686 419.293 145.662 419.402 145.651 419.511 145.639 419.656 145.633 419.836 145.633 420.007 145.633 420.15 145.639 420.263 145.651 420.377 145.662 420.464 145.686 420.527 145.721 420.589 145.756 420.634 145.795 420.662 145.838 420.689 145.881 420.703 145.934 420.703 145.996L420.703 147.391C421.296 146.727 421.888 146.241 422.478 145.932 423.068 145.623 423.664 145.469 424.265 145.469ZM381.742 145.469C382.5 145.469 383.144 145.555 383.675 145.727 384.207 145.899 384.636 146.151 384.964 146.483 385.293 146.815 385.531 147.227 385.679 147.719 385.828 148.211 385.902 148.786 385.902 149.442L385.902 156.555C385.902 156.649 385.871 156.719 385.808 156.766 385.746 156.813 385.66 156.848 385.55 156.871 385.441 156.895 385.281 156.907 385.07 156.907 384.867 156.907 384.705 156.895 384.584 156.871 384.462 156.848 384.375 156.813 384.32 156.766 384.265 156.719 384.238 156.649 384.238 156.555L384.238 155.5C383.777 155.993 383.263 156.375 382.697 156.649 382.13 156.922 381.531 157.059 380.898 157.059 380.343 157.059 379.841 156.987 379.392 156.842 378.943 156.698 378.56 156.489 378.244 156.215 377.927 155.942 377.681 155.606 377.505 155.207 377.33 154.809 377.242 154.356 377.242 153.848 377.242 153.254 377.363 152.739 377.605 152.301 377.847 151.864 378.195 151.5 378.648 151.211 379.101 150.922 379.656 150.705 380.312 150.561 380.968 150.416 381.707 150.344 382.527 150.344L383.98 150.344 383.98 149.524C383.98 149.118 383.937 148.758 383.851 148.446 383.765 148.133 383.627 147.873 383.435 147.666 383.244 147.459 382.996 147.303 382.691 147.198 382.386 147.092 382.011 147.039 381.566 147.039 381.089 147.039 380.662 147.096 380.283 147.209 379.904 147.323 379.572 147.448 379.287 147.584 379.002 147.721 378.763 147.846 378.572 147.959 378.38 148.073 378.238 148.129 378.144 148.129 378.082 148.129 378.027 148.114 377.98 148.082 377.933 148.051 377.892 148.004 377.857 147.942 377.822 147.879 377.796 147.799 377.781 147.702 377.765 147.604 377.757 147.496 377.757 147.379 377.757 147.184 377.771 147.03 377.798 146.916 377.826 146.803 377.892 146.696 377.998 146.594 378.103 146.493 378.285 146.373 378.543 146.237 378.8 146.1 379.097 145.975 379.433 145.862 379.769 145.748 380.136 145.655 380.535 145.58 380.933 145.506 381.336 145.469 381.742 145.469ZM358.406 145.469C359.171 145.469 359.824 145.618 360.363 145.914 360.902 146.211 361.341 146.618 361.681 147.133 362.021 147.649 362.269 148.248 362.425 148.932 362.582 149.616 362.66 150.34 362.66 151.106 362.66 152.028 362.56 152.856 362.361 153.59 362.162 154.325 361.869 154.948 361.482 155.459 361.095 155.971 360.617 156.366 360.046 156.643 359.476 156.92 358.824 157.059 358.089 157.059 357.777 157.059 357.488 157.028 357.222 156.965 356.957 156.903 356.697 156.805 356.443 156.672 356.189 156.539 355.937 156.371 355.687 156.168 355.437 155.965 355.171 155.727 354.89 155.454L354.89 160.727C354.89 160.789 354.875 160.844 354.843 160.891 354.812 160.938 354.761 160.977 354.691 161.008 354.621 161.039 354.523 161.063 354.398 161.079 354.273 161.094 354.113 161.102 353.918 161.102 353.73 161.102 353.574 161.094 353.449 161.079 353.324 161.063 353.224 161.039 353.15 161.008 353.076 160.977 353.025 160.938 352.998 160.891 352.97 160.844 352.957 160.789 352.957 160.727L352.957 145.996C352.957 145.926 352.968 145.87 352.992 145.827 353.015 145.784 353.062 145.746 353.132 145.715 353.203 145.684 353.293 145.662 353.402 145.651 353.511 145.639 353.644 145.633 353.8 145.633 353.964 145.633 354.099 145.639 354.205 145.651 354.31 145.662 354.398 145.684 354.468 145.715 354.539 145.746 354.587 145.784 354.615 145.827 354.642 145.87 354.656 145.926 354.656 145.996L354.656 147.414C354.976 147.086 355.285 146.801 355.582 146.559 355.879 146.317 356.177 146.116 356.478 145.955 356.779 145.795 357.087 145.674 357.404 145.592 357.72 145.51 358.054 145.469 358.406 145.469ZM346.214 145.469C346.496 145.469 346.777 145.493 347.058 145.539 347.339 145.586 347.593 145.645 347.82 145.715 348.046 145.786 348.24 145.862 348.4 145.944 348.56 146.026 348.681 146.098 348.763 146.161 348.845 146.223 348.9 146.278 348.927 146.325 348.955 146.371 348.974 146.424 348.986 146.483 348.998 146.541 349.009 146.614 349.021 146.7 349.033 146.786 349.039 146.891 349.039 147.016 349.039 147.149 349.033 147.264 349.021 147.362 349.009 147.459 348.99 147.539 348.962 147.602 348.935 147.664 348.902 147.709 348.863 147.737 348.824 147.764 348.781 147.778 348.734 147.778 348.664 147.778 348.562 147.735 348.429 147.649 348.296 147.563 348.125 147.471 347.914 147.373 347.703 147.276 347.455 147.184 347.17 147.098 346.884 147.012 346.558 146.969 346.191 146.969 345.863 146.969 345.574 147.006 345.324 147.08 345.074 147.155 344.869 147.26 344.709 147.397 344.548 147.534 344.427 147.696 344.345 147.883 344.263 148.071 344.222 148.274 344.222 148.493 344.222 148.797 344.3 149.053 344.457 149.26 344.613 149.467 344.816 149.649 345.066 149.805 345.316 149.961 345.601 150.102 345.921 150.227 346.242 150.352 346.568 150.481 346.9 150.614 347.232 150.746 347.56 150.895 347.884 151.059 348.209 151.223 348.496 151.422 348.746 151.657 348.996 151.891 349.197 152.172 349.349 152.5 349.502 152.829 349.578 153.219 349.578 153.672 349.578 154.211 349.478 154.692 349.279 155.114 349.08 155.536 348.796 155.891 348.429 156.18 348.062 156.469 347.625 156.688 347.117 156.836 346.609 156.985 346.05 157.059 345.441 157.059 345.066 157.059 344.709 157.03 344.369 156.971 344.029 156.912 343.724 156.838 343.455 156.748 343.185 156.659 342.957 156.565 342.769 156.467 342.582 156.37 342.445 156.282 342.359 156.204 342.273 156.125 342.211 156.016 342.171 155.875 342.132 155.735 342.113 155.543 342.113 155.301 342.113 155.153 342.121 155.028 342.136 154.926 342.152 154.825 342.171 154.743 342.195 154.68 342.218 154.618 342.252 154.573 342.295 154.545 342.337 154.518 342.386 154.504 342.441 154.504 342.527 154.504 342.654 154.557 342.822 154.662 342.99 154.768 343.197 154.883 343.443 155.008 343.689 155.133 343.98 155.248 344.316 155.354 344.652 155.459 345.039 155.512 345.476 155.512 345.804 155.512 346.101 155.477 346.367 155.407 346.632 155.336 346.863 155.233 347.058 155.096 347.254 154.959 347.404 154.786 347.509 154.575 347.615 154.364 347.668 154.114 347.668 153.825 347.668 153.528 347.591 153.278 347.439 153.075 347.287 152.871 347.086 152.692 346.836 152.536 346.586 152.379 346.304 152.241 345.992 152.12 345.679 151.998 345.357 151.871 345.025 151.739 344.693 151.606 344.369 151.455 344.052 151.287 343.736 151.12 343.453 150.914 343.203 150.672 342.953 150.43 342.752 150.141 342.599 149.805 342.447 149.469 342.371 149.067 342.371 148.598 342.371 148.184 342.451 147.787 342.611 147.409 342.771 147.03 343.011 146.698 343.332 146.412 343.652 146.127 344.052 145.899 344.533 145.727 345.013 145.555 345.574 145.469 346.214 145.469ZM335.597 145.469C336.464 145.469 337.22 145.598 337.865 145.856 338.509 146.114 339.046 146.489 339.476 146.981 339.906 147.473 340.228 148.071 340.443 148.774 340.658 149.477 340.765 150.27 340.765 151.153 340.765 152.012 340.652 152.803 340.425 153.526 340.199 154.248 339.861 154.871 339.412 155.395 338.962 155.918 338.4 156.327 337.724 156.62 337.048 156.912 336.265 157.059 335.375 157.059 334.507 157.059 333.752 156.93 333.107 156.672 332.462 156.414 331.925 156.039 331.496 155.547 331.066 155.055 330.746 154.457 330.535 153.754 330.324 153.051 330.218 152.254 330.218 151.364 330.218 150.504 330.33 149.713 330.552 148.991 330.775 148.268 331.111 147.645 331.56 147.121 332.009 146.598 332.57 146.192 333.242 145.903 333.914 145.614 334.699 145.469 335.597 145.469ZM489.138 143.172C488.264 143.172 487.531 143.336 486.938 143.664 486.345 143.993 485.863 144.43 485.492 144.977 485.122 145.524 484.857 146.162 484.697 146.893 484.537 147.623 484.457 148.391 484.457 149.196 484.457 150.086 484.531 150.907 484.679 151.657 484.827 152.407 485.077 153.053 485.428 153.596 485.779 154.139 486.249 154.561 486.838 154.862 487.428 155.162 488.167 155.313 489.056 155.313 489.938 155.313 490.679 155.149 491.28 154.821 491.881 154.493 492.365 154.049 492.731 153.491 493.098 152.932 493.359 152.286 493.516 151.551 493.672 150.817 493.75 150.039 493.75 149.219 493.75 148.36 493.674 147.561 493.521 146.823 493.369 146.084 493.116 145.444 492.761 144.901 492.406 144.358 491.932 143.934 491.339 143.629 490.746 143.325 490.012 143.172 489.138 143.172ZM409.138 143.172C408.264 143.172 407.531 143.336 406.938 143.664 406.345 143.993 405.863 144.43 405.492 144.977 405.122 145.524 404.857 146.162 404.697 146.893 404.537 147.623 404.457 148.391 404.457 149.196 404.457 150.086 404.531 150.907 404.679 151.657 404.827 152.407 405.077 153.053 405.428 153.596 405.779 154.139 406.249 154.561 406.838 154.862 407.428 155.162 408.167 155.313 409.056 155.313 409.938 155.313 410.679 155.149 411.28 154.821 411.881 154.493 412.365 154.049 412.731 153.491 413.098 152.932 413.359 152.286 413.516 151.551 413.672 150.817 413.75 150.039 413.75 149.219 413.75 148.36 413.674 147.561 413.521 146.823 413.369 146.084 413.116 145.444 412.761 144.901 412.406 144.358 411.932 143.934 411.339 143.629 410.746 143.325 410.012 143.172 409.138 143.172ZM390.375 142.809C390.57 142.809 390.73 142.817 390.855 142.832 390.98 142.848 391.078 142.873 391.148 142.909 391.218 142.944 391.269 142.985 391.3 143.032 391.332 143.079 391.347 143.129 391.347 143.184L391.347 145.692 394.054 145.692C394.117 145.692 394.171 145.705 394.218 145.733 394.265 145.76 394.306 145.807 394.341 145.873 394.377 145.94 394.402 146.024 394.418 146.125 394.433 146.227 394.441 146.352 394.441 146.5 394.441 146.782 394.406 146.985 394.336 147.11 394.265 147.235 394.171 147.297 394.054 147.297L391.347 147.297 391.347 153.18C391.347 153.907 391.455 154.455 391.67 154.827 391.884 155.198 392.269 155.383 392.824 155.383 393.004 155.383 393.164 155.366 393.304 155.33 393.445 155.295 393.57 155.258 393.679 155.219 393.789 155.18 393.882 155.143 393.961 155.108 394.039 155.073 394.109 155.055 394.171 155.055 394.211 155.055 394.248 155.065 394.283 155.084 394.318 155.104 394.345 155.141 394.365 155.196 394.384 155.25 394.402 155.325 394.418 155.418 394.433 155.512 394.441 155.629 394.441 155.77 394.441 155.996 394.425 156.176 394.394 156.309 394.363 156.442 394.316 156.539 394.254 156.602 394.191 156.664 394.097 156.723 393.972 156.778 393.847 156.832 393.705 156.877 393.545 156.912 393.384 156.948 393.214 156.977 393.035 157 392.855 157.024 392.675 157.036 392.496 157.036 391.949 157.036 391.48 156.963 391.089 156.819 390.699 156.674 390.379 156.455 390.129 156.162 389.879 155.87 389.697 155.498 389.584 155.049 389.47 154.6 389.414 154.071 389.414 153.461L389.414 147.297 387.937 147.297C387.82 147.297 387.726 147.235 387.656 147.11 387.586 146.985 387.55 146.782 387.55 146.5 387.55 146.352 387.56 146.227 387.58 146.125 387.599 146.024 387.625 145.94 387.656 145.873 387.687 145.807 387.728 145.76 387.779 145.733 387.83 145.705 387.886 145.692 387.949 145.692L389.414 145.692 389.414 143.184C389.414 143.129 389.427 143.079 389.455 143.032 389.482 142.985 389.533 142.944 389.607 142.909 389.681 142.873 389.781 142.848 389.906 142.832 390.031 142.817 390.187 142.809 390.375 142.809ZM325.828 141.602C326.015 141.602 326.175 141.61 326.308 141.625 326.441 141.641 326.545 141.664 326.619 141.696 326.693 141.727 326.748 141.766 326.783 141.813 326.818 141.86 326.836 141.911 326.836 141.965L326.836 153.016C326.836 153.618 326.781 154.168 326.671 154.668 326.562 155.168 326.375 155.594 326.109 155.946 325.843 156.297 325.494 156.569 325.06 156.76 324.627 156.952 324.089 157.047 323.449 157.047 323.23 157.047 323.013 157.03 322.798 156.995 322.584 156.959 322.386 156.912 322.207 156.854 322.027 156.795 321.871 156.733 321.738 156.666 321.605 156.6 321.517 156.543 321.474 156.496 321.431 156.45 321.396 156.403 321.369 156.356 321.341 156.309 321.318 156.252 321.298 156.186 321.279 156.12 321.265 156.037 321.257 155.94 321.25 155.842 321.246 155.723 321.246 155.582 321.246 155.411 321.252 155.268 321.263 155.155 321.275 155.041 321.296 154.952 321.328 154.885 321.359 154.819 321.396 154.772 321.439 154.745 321.482 154.717 321.535 154.704 321.597 154.704 321.66 154.704 321.74 154.733 321.837 154.791 321.935 154.85 322.052 154.914 322.189 154.985 322.326 155.055 322.484 155.12 322.664 155.178 322.843 155.237 323.054 155.266 323.296 155.266 323.562 155.266 323.789 155.233 323.976 155.166 324.164 155.1 324.32 154.977 324.445 154.797 324.57 154.618 324.664 154.37 324.726 154.053 324.789 153.737 324.82 153.325 324.82 152.817L324.82 141.965C324.82 141.911 324.836 141.86 324.867 141.813 324.898 141.766 324.953 141.727 325.031 141.696 325.109 141.664 325.212 141.641 325.341 141.625 325.47 141.61 325.632 141.602 325.828 141.602ZM489.261 141.45C490.379 141.45 491.351 141.618 492.179 141.954 493.007 142.289 493.697 142.78 494.248 143.424 494.798 144.069 495.209 144.866 495.478 145.815 495.748 146.764 495.882 147.852 495.882 149.079 495.882 150.305 495.738 151.411 495.449 152.395 495.16 153.379 494.728 154.217 494.154 154.909 493.58 155.6 492.859 156.131 491.992 156.502 491.125 156.873 490.113 157.059 488.957 157.059 487.816 157.059 486.83 156.889 485.998 156.549 485.166 156.209 484.478 155.715 483.935 155.067 483.392 154.418 482.988 153.614 482.722 152.653 482.457 151.692 482.324 150.586 482.324 149.336 482.324 148.141 482.468 147.055 482.757 146.079 483.046 145.102 483.48 144.272 484.058 143.588 484.636 142.905 485.359 142.377 486.226 142.006 487.093 141.635 488.105 141.45 489.261 141.45ZM409.261 141.45C410.379 141.45 411.351 141.618 412.179 141.954 413.007 142.289 413.697 142.78 414.248 143.424 414.798 144.069 415.209 144.866 415.478 145.815 415.748 146.764 415.882 147.852 415.882 149.079 415.882 150.305 415.738 151.411 415.449 152.395 415.16 153.379 414.728 154.217 414.154 154.909 413.58 155.6 412.859 156.131 411.992 156.502 411.125 156.873 410.113 157.059 408.957 157.059 407.816 157.059 406.83 156.889 405.998 156.549 405.166 156.209 404.478 155.715 403.935 155.067 403.392 154.418 402.988 153.614 402.722 152.653 402.457 151.692 402.324 150.586 402.324 149.336 402.324 148.141 402.468 147.055 402.757 146.079 403.046 145.102 403.48 144.272 404.058 143.588 404.636 142.905 405.359 142.377 406.226 142.006 407.093 141.635 408.105 141.45 409.261 141.45ZM544.929 141.286C545.382 141.286 545.693 141.366 545.861 141.526 546.029 141.686 546.113 141.989 546.113 142.434 546.113 142.887 546.027 143.196 545.855 143.36 545.683 143.524 545.367 143.606 544.906 143.606 544.453 143.606 544.142 143.526 543.974 143.366 543.806 143.205 543.722 142.903 543.722 142.457 543.722 142.004 543.808 141.696 543.98 141.532 544.152 141.368 544.468 141.286 544.929 141.286ZM472.929 141.286C473.382 141.286 473.693 141.366 473.861 141.526 474.029 141.686 474.113 141.989 474.113 142.434 474.113 142.887 474.027 143.196 473.855 143.36 473.683 143.524 473.367 143.606 472.906 143.606 472.453 143.606 472.142 143.526 471.974 143.366 471.806 143.205 471.722 142.903 471.722 142.457 471.722 142.004 471.808 141.696 471.98 141.532 472.152 141.368 472.468 141.286 472.929 141.286ZM444.929 141.286C445.382 141.286 445.693 141.366 445.861 141.526 446.029 141.686 446.113 141.989 446.113 142.434 446.113 142.887 446.027 143.196 445.855 143.36 445.683 143.524 445.367 143.606 444.906 143.606 444.453 143.606 444.142 143.526 443.974 143.366 443.806 143.205 443.722 142.903 443.722 142.457 443.722 142.004 443.808 141.696 443.98 141.532 444.152 141.368 444.468 141.286 444.929 141.286ZM439.007 140.559C439.203 140.559 439.363 140.569 439.488 140.588 439.613 140.608 439.711 140.631 439.781 140.659 439.851 140.686 439.904 140.725 439.939 140.776 439.974 140.827 439.992 140.879 439.992 140.934L439.992 156.543C439.992 156.606 439.978 156.661 439.951 156.707 439.923 156.754 439.877 156.791 439.81 156.819 439.744 156.846 439.656 156.868 439.546 156.883 439.437 156.899 439.304 156.907 439.148 156.907 438.984 156.907 438.847 156.899 438.738 156.883 438.629 156.868 438.539 156.846 438.468 156.819 438.398 156.791 438.347 156.754 438.316 156.707 438.285 156.661 438.269 156.606 438.269 156.543L438.269 155.149C437.714 155.75 437.138 156.219 436.541 156.555 435.943 156.891 435.289 157.059 434.578 157.059 433.804 157.059 433.144 156.909 432.597 156.608 432.05 156.307 431.607 155.901 431.267 155.389 430.927 154.877 430.679 154.276 430.523 153.584 430.367 152.893 430.289 152.164 430.289 151.399 430.289 150.493 430.386 149.674 430.582 148.944 430.777 148.213 431.066 147.59 431.449 147.075 431.832 146.559 432.306 146.162 432.873 145.885 433.439 145.608 434.093 145.469 434.836 145.469 435.453 145.469 436.017 145.604 436.529 145.873 437.041 146.143 437.546 146.539 438.046 147.063L438.046 140.934C438.046 140.879 438.06 140.827 438.087 140.776 438.115 140.725 438.168 140.686 438.246 140.659 438.324 140.631 438.423 140.608 438.545 140.588 438.666 140.569 438.82 140.559 439.007 140.559ZM518.918 140.512C519.113 140.512 519.273 140.52 519.398 140.536 519.523 140.551 519.621 140.575 519.691 140.606 519.761 140.637 519.812 140.676 519.843 140.723 519.875 140.77 519.89 140.825 519.89 140.887L519.89 147.204C520.203 146.883 520.505 146.614 520.798 146.395 521.091 146.176 521.379 145.998 521.66 145.862 521.941 145.725 522.222 145.625 522.504 145.563 522.785 145.5 523.082 145.469 523.394 145.469 524.16 145.469 524.814 145.621 525.357 145.926 525.9 146.231 526.341 146.639 526.681 147.151 527.021 147.662 527.269 148.262 527.425 148.95 527.582 149.637 527.66 150.364 527.66 151.129 527.66 152.043 527.56 152.866 527.361 153.596 527.162 154.327 526.869 154.95 526.482 155.465 526.095 155.981 525.621 156.375 525.058 156.649 524.496 156.922 523.851 157.059 523.125 157.059 522.789 157.059 522.478 157.026 522.193 156.959 521.908 156.893 521.629 156.786 521.355 156.637 521.082 156.489 520.808 156.301 520.535 156.075 520.261 155.848 519.972 155.575 519.668 155.254L519.668 156.543C519.668 156.606 519.652 156.661 519.621 156.707 519.589 156.754 519.539 156.791 519.468 156.819 519.398 156.846 519.31 156.868 519.205 156.883 519.099 156.899 518.964 156.907 518.8 156.907 518.644 156.907 518.511 156.899 518.402 156.883 518.293 156.868 518.203 156.846 518.132 156.819 518.062 156.791 518.015 156.754 517.992 156.707 517.968 156.661 517.957 156.606 517.957 156.543L517.957 140.887C517.957 140.825 517.97 140.77 517.998 140.723 518.025 140.676 518.076 140.637 518.15 140.606 518.224 140.575 518.324 140.551 518.449 140.536 518.574 140.52 518.73 140.512 518.918 140.512ZM461.918 140.512C462.113 140.512 462.273 140.52 462.398 140.536 462.523 140.551 462.621 140.575 462.691 140.606 462.761 140.637 462.812 140.676 462.843 140.723 462.875 140.77 462.89 140.825 462.89 140.887L462.89 150.426 466.875 146.043C466.937 145.965 467.004 145.901 467.074 145.85 467.144 145.799 467.228 145.756 467.326 145.721 467.423 145.686 467.539 145.662 467.671 145.651 467.804 145.639 467.964 145.633 468.152 145.633 468.347 145.633 468.511 145.639 468.644 145.651 468.777 145.662 468.884 145.682 468.966 145.709 469.048 145.737 469.107 145.772 469.142 145.815 469.177 145.858 469.195 145.914 469.195 145.985 469.195 146.079 469.17 146.172 469.119 146.266 469.068 146.36 468.984 146.469 468.867 146.594L465.046 150.414 469.336 155.981C469.437 156.114 469.509 156.221 469.552 156.303 469.595 156.385 469.617 156.461 469.617 156.532 469.617 156.594 469.601 156.649 469.57 156.696 469.539 156.743 469.486 156.782 469.412 156.813 469.337 156.844 469.234 156.868 469.101 156.883 468.968 156.899 468.8 156.907 468.597 156.907 468.386 156.907 468.212 156.901 468.076 156.889 467.939 156.877 467.824 156.858 467.73 156.83 467.636 156.803 467.56 156.764 467.502 156.713 467.443 156.662 467.39 156.602 467.343 156.532L462.89 150.696 462.89 156.543C462.89 156.606 462.875 156.659 462.843 156.702 462.812 156.745 462.761 156.782 462.691 156.813 462.621 156.844 462.523 156.868 462.398 156.883 462.273 156.899 462.113 156.907 461.918 156.907 461.73 156.907 461.574 156.899 461.449 156.883 461.324 156.868 461.224 156.844 461.15 156.813 461.076 156.782 461.025 156.745 460.998 156.702 460.97 156.659 460.957 156.606 460.957 156.543L460.957 140.887C460.957 140.825 460.97 140.77 460.998 140.723 461.025 140.676 461.076 140.637 461.15 140.606 461.224 140.575 461.324 140.551 461.449 140.536 461.574 140.52 461.73 140.512 461.918 140.512ZM365.918 140.512C366.113 140.512 366.273 140.52 366.398 140.536 366.523 140.551 366.621 140.575 366.691 140.606 366.761 140.637 366.812 140.676 366.843 140.723 366.875 140.77 366.89 140.825 366.89 140.887L366.89 147.204C367.445 146.618 368.004 146.182 368.566 145.897 369.129 145.612 369.695 145.469 370.265 145.469 370.968 145.469 371.56 145.588 372.041 145.827 372.521 146.065 372.91 146.383 373.207 146.782 373.504 147.18 373.716 147.647 373.845 148.182 373.974 148.717 374.039 149.364 374.039 150.121L374.039 156.543C374.039 156.606 374.023 156.659 373.992 156.702 373.961 156.745 373.91 156.782 373.839 156.813 373.769 156.844 373.671 156.868 373.546 156.883 373.421 156.899 373.265 156.907 373.078 156.907 372.882 156.907 372.722 156.899 372.597 156.883 372.472 156.868 372.375 156.844 372.304 156.813 372.234 156.782 372.183 156.745 372.152 156.702 372.121 156.659 372.105 156.606 372.105 156.543L372.105 150.368C372.105 149.766 372.058 149.282 371.964 148.914 371.871 148.547 371.734 148.231 371.554 147.965 371.375 147.7 371.142 147.496 370.857 147.356 370.572 147.215 370.242 147.145 369.867 147.145 369.382 147.145 368.898 147.317 368.414 147.661 367.929 148.004 367.421 148.508 366.89 149.172L366.89 156.543C366.89 156.606 366.875 156.659 366.843 156.702 366.812 156.745 366.761 156.782 366.691 156.813 366.621 156.844 366.523 156.868 366.398 156.883 366.273 156.899 366.113 156.907 365.918 156.907 365.73 156.907 365.574 156.899 365.449 156.883 365.324 156.868 365.224 156.844 365.15 156.813 365.076 156.782 365.025 156.745 364.998 156.702 364.97 156.659 364.957 156.606 364.957 156.543L364.957 140.887C364.957 140.825 364.97 140.77 364.998 140.723 365.025 140.676 365.076 140.637 365.15 140.606 365.224 140.575 365.324 140.551 365.449 140.536 365.574 140.52 365.73 140.512 365.918 140.512Z" stroke="#E7E6E6" stroke-linejoin="round" stroke-miterlimit="10" fill="none" fill-rule="evenodd"/><text fill="#000000" fill-opacity="0" font-family="Arial,Arial_MSFontService,sans-serif" font-size="20.5898" x="321.246" y="158.528">Josphat Ondieki Ombui</text></g></svg>